<?xml version="1.0" standalone="no"?>
<!DOCTYPE svg PUBLIC "-//W3C//DTD SVG 1.0//EN" "http://www.w3.org/TR/2001/REC-SVG-20010904/DTD/svg10.dtd">
<svg xmlns="http://www.w3.org/2000/svg" xmlns:xlink="http://www.w3.org/1999/xlink" id="body_1" width="100" height="106">

<g transform="matrix(0.25 0 0 0.25 -0 0.2981987)">
	<g>
	</g>
    <path d="M107.614 51.849C 57.243 80.35 16.025 103.759 16.02 103.869C 16.015 103.979 98.892 104.069 200.191 104.069C 354.87 104.069 384.308 104.012 383.98 103.709C 383.454 103.224 200.113 0.204 199.602 0.106C 199.381 0.064 157.986 23.348 107.614 51.849M16.678 220.121C 18.559 221.292 198.97 323.24 199.333 323.336C 199.606 323.408 375.53 224.83 383.989 219.864C 384.22 219.729 306.424 219.628 200.133 219.626C 20.087 219.622 15.896 219.633 16.678 220.121" stroke="none" fill="#04ACEC" fill-rule="evenodd" />
	<g>
	</g>
    <path d="M0.267 154.358L0.267 187.592L10.54 187.592L20.814 187.592L20.814 177.615L20.814 167.638L29.42 167.504C 40.71 167.33 44.119 166.629 49.276 163.422C 63.161 154.786 61.708 131.036 46.852 123.806C 41.562 121.232 42.459 121.318 19.947 121.215L19.947 121.215L0.267 121.125L0.267 154.358zM223.616 154.367L223.616 187.592L233.354 187.592L243.092 187.592L243.16 169.726L243.229 151.861L253.239 169.66L263.25 187.458L273.319 187.528L283.389 187.598L283.389 154.373L283.389 121.147L273.651 121.147L263.913 121.147L263.844 138.685L263.776 156.222L254.271 138.751L244.767 121.281L234.191 121.211L223.616 121.141L223.616 154.367zM93.662 138.143C 89.674 138.81 86.405 141.189 83.834 145.297L83.834 145.297L82.999 146.631L82.994 142.962L82.989 139.293L74.049 139.293L65.11 139.293L65.11 163.442L65.11 187.592L74.45 187.592L83.789 187.592L83.789 176.819C 83.789 162.339 84.365 159.326 87.692 156.397C 90.682 153.765 96.715 153.255 101.795 155.205C 102.165 155.347 102.202 154.466 102.139 146.997L102.139 146.997L102.068 138.63L100.334 138.307C 98.671 137.997 95.064 137.908 93.662 138.143M123.949 138.256C 110.643 140.19 102.735 149.529 102.735 163.309C 102.735 179.369 112.421 188.562 129.286 188.508C 145.687 188.455 155.304 179.141 155.304 163.309C 155.304 146.126 142.146 135.613 123.949 138.256M190.28 138.365C 187.281 138.908 184.804 140.257 182.69 142.497L182.69 142.497L180.921 144.373L180.921 141.833L180.921 139.293L171.981 139.293L163.042 139.293L163.042 171.181L163.042 203.069L172.382 203.069L181.721 203.069L181.721 192.85L181.721 182.632L183.421 184.29C 188.579 189.324 198.116 190.215 205.203 186.326C 218.339 179.119 219.127 151.744 206.486 141.809C 202.235 138.469 196.474 137.244 190.28 138.365M312.608 138.233C 289.138 141.859 283.325 175.186 304.336 185.658C 315.373 191.159 331.33 189.072 338.772 181.153C 340.871 178.92 343.428 174.726 343.429 173.516C 343.429 173.256 341.532 173.183 334.823 173.187L334.823 173.187L326.217 173.191L325.172 174.251C 319.873 179.629 309.347 175.431 309.276 167.912C 309.274 167.648 312.98 167.578 326.925 167.578L326.925 167.578L344.578 167.578L344.399 164.443C 343.551 149.516 337.174 141.138 324.742 138.618C 322.331 138.129 314.826 137.891 312.608 138.233M33.065 138.505C 37.707 139.087 39.442 141.033 39.164 145.35C 38.851 150.237 36.018 151.542 25.684 151.559L25.684 151.559L20.814 151.568L20.814 144.897L20.814 138.225L25.824 138.225C 28.58 138.225 31.838 138.351 33.065 138.505M354.633 150.496C 358.743 156.657 362.136 161.799 362.173 161.921C 362.211 162.043 358.519 167.769 353.969 174.645C 349.42 181.52 345.657 187.246 345.608 187.369C 345.559 187.491 350.127 187.592 355.759 187.592L355.759 187.592L365.999 187.592L369.276 181.855C 371.078 178.699 372.588 176.117 372.632 176.117C 372.676 176.117 374.257 178.699 376.145 181.855L376.145 181.855L379.579 187.592L389.79 187.592C 395.405 187.592 400 187.523 400 187.438C 400 187.353 396.208 181.642 391.572 174.746C 386.937 167.85 383.207 162.046 383.283 161.848C 383.359 161.649 386.29 157.184 389.796 151.924C 393.302 146.665 396.611 141.67 397.15 140.824L397.15 140.824L398.13 139.286L388.069 139.356L378.009 139.426L375.554 143.782C 374.204 146.177 373.043 148.193 372.975 148.262C 372.906 148.33 371.724 146.342 370.347 143.843L370.347 143.843L367.845 139.299L357.503 139.296L347.162 139.293L354.633 150.496zM322.186 150.875C 324.458 151.987 326.011 154.089 326.493 156.704L326.493 156.704L326.677 157.705L318.108 157.705C 308.459 157.705 309.174 157.902 310.076 155.493C 311.827 150.812 317.577 148.62 322.186 150.875M132.247 152.313C 138.351 155.429 138.36 171.142 132.26 174.454C 129.435 175.987 124.777 174.676 123.096 171.874C 120.945 168.287 120.748 159.225 122.736 155.328C 124.407 152.053 128.93 150.619 132.247 152.313M192.3 152.319C 198.939 155.709 198.405 172.247 191.578 174.655C 185.384 176.841 181.161 172.235 181.168 163.299C 181.174 154.133 186.181 149.195 192.3 152.319M369.52 293.907C 360.794 296.427 359.848 308.583 368.083 312.389C 373.048 314.683 379.46 312.183 381.314 307.23C 384.237 299.417 377.355 291.643 369.52 293.907M375.571 295.631C 379.849 297.523 381.897 302.773 379.955 306.871C 376.893 313.332 368.229 313.637 364.798 307.405C 360.988 300.485 368.351 292.437 375.571 295.631M368.512 303.381L368.512 308.472L369.58 308.472L370.647 308.472L370.647 306.471L370.647 304.47L372.197 304.47C 374.277 304.47 374.671 304.805 374.88 306.756L374.88 306.756L375.05 308.339L376.183 308.421C 377.306 308.502 377.314 308.496 377.051 307.803C 376.904 307.418 376.785 306.587 376.785 305.956C 376.785 305.199 376.596 304.569 376.231 304.105C 375.927 303.719 375.813 303.402 375.978 303.402C 376.472 303.402 377.11 301.533 376.935 300.6C 376.602 298.823 375.826 298.476 371.961 298.378L371.961 298.378L368.512 298.29L368.512 303.381zM374.429 300.375C 375.755 301.575 374.672 302.869 372.34 302.869L372.34 302.869L370.647 302.869L370.647 301.401L370.647 299.933L372.294 299.933C 373.452 299.933 374.086 300.064 374.429 300.375M11.207 332.502C 4.871 332.965 1.172 336.225 1.232 341.294C 1.29 346.144 4.449 348.778 12.443 350.642C 17.118 351.732 18.642 353.187 17.474 355.446C 15.859 358.568 10.273 357.215 9.293 353.465L9.293 353.465L8.953 352.16L6.011 352.33C 4.393 352.423 2.528 352.502 1.868 352.505C 0.053 352.513 -0.108 352.7 0.246 354.401C 1.512 360.494 5.627 363.183 13.665 363.171C 21.978 363.158 26.572 359.777 26.895 353.436C 27.18 347.818 24.491 345.372 15.443 343.02C 9.889 341.576 9.062 340.971 10.274 339.239C 11.828 337.021 16.429 338.317 16.955 341.121C 17.094 341.863 17.249 342.08 17.576 341.988C 17.816 341.921 19.846 341.784 22.088 341.683L22.088 341.683L26.163 341.5L25.988 340.53C 24.876 334.387 20.197 331.845 11.207 332.502M104.336 335.69L104.336 338.626L108.606 338.626L112.875 338.626L112.875 335.69L112.875 332.755L108.606 332.755L104.336 332.755L104.336 335.69zM183.856 332.975C 183.856 333.096 186.438 337.024 189.593 341.704L189.593 341.704L195.33 350.213L195.33 356.427L195.33 362.642L200 362.642L204.67 362.642L204.67 356.593L204.67 350.545L210.281 342.051C 213.368 337.38 215.963 333.375 216.049 333.151C 216.187 332.793 215.581 332.752 211.045 332.816L211.045 332.816L205.885 332.889L203.076 337.622C 201.531 340.225 200.192 342.356 200.1 342.358C 200.008 342.36 198.642 340.2 197.065 337.558L197.065 337.558L194.196 332.755L189.026 332.755C 186.183 332.755 183.856 332.854 183.856 332.975M281.788 336.624L281.788 340.494L286.458 340.494L291.127 340.494L291.127 351.568L291.127 362.642L295.797 362.642L300.467 362.642L300.467 351.568L300.467 340.494L305.137 340.494L309.807 340.494L309.807 336.624L309.807 332.755L295.797 332.755L281.788 332.755L281.788 336.624zM389.393 334.934L385.324 337.061L385.324 339.044L385.324 341.027L383.722 341.027L382.121 341.027L382.121 344.229L382.121 347.432L383.722 347.432L385.324 347.432L385.324 352.489C 385.324 358.476 385.546 359.781 386.823 361.272C 388.361 363.069 392.13 363.679 396.741 362.876L396.741 362.876L398.463 362.576L398.279 360.141C 398.008 356.555 397.989 356.506 396.977 356.796C 394.067 357.631 393.863 357.311 393.863 351.915L393.863 351.915L393.863 347.432L395.997 347.432L398.132 347.432L398.132 344.229L398.132 341.027L395.997 341.027L393.863 341.027L393.863 336.891C 393.863 334.616 393.773 332.767 393.662 332.781C 393.552 332.796 391.631 333.765 389.393 334.934M38.441 340.89C 26.826 343.534 26.754 360.659 38.348 362.918C 40.516 363.34 46.103 363.119 47.939 362.538C 50.355 361.773 54.169 358.507 54.169 357.202C 54.169 356.506 46.266 356.052 45.549 356.707C 42.893 359.134 39.376 358.195 38.549 354.837L38.549 354.837L38.368 354.103L46.535 354.103L54.703 354.103L54.703 352.405C 54.703 343.679 47.767 338.767 38.441 340.89M69.623 340.733C 68.429 341.122 67.524 341.859 66.842 342.996L66.842 342.996L66.183 344.096L66.18 342.562L66.177 341.027L62.308 341.027L58.439 341.027L58.439 351.835L58.439 362.642L62.575 362.642L66.711 362.642L66.719 358.439C 66.737 349.284 67.863 346.6 71.347 347.404C 72.078 347.573 72.763 347.618 72.869 347.505C 73.133 347.223 75.25 342.19 75.25 341.845C 75.25 341.072 71.099 340.252 69.623 340.733M125.854 340.787C 113.988 342.52 113.387 360.305 125.112 362.79C 132.746 364.409 139.155 361.936 141.151 356.603C 141.835 354.774 142.214 355.031 138.081 354.527C 133.549 353.974 133.815 353.939 133.116 355.183C 130.791 359.32 125.147 357.238 125.152 352.245C 125.156 348.339 127.38 345.922 130.444 346.497C 131.459 346.687 133.155 348.169 133.155 348.866C 133.155 349.177 133.346 349.253 133.889 349.159C 134.914 348.983 140.59 348.232 140.903 348.232C 141.812 348.232 139.948 344.617 138.284 343.152C 135.778 340.946 130.995 340.036 125.854 340.787M153.169 340.78C 144.08 342.396 140.836 354.189 147.744 360.502C 151.723 364.139 161.5 364.214 165.86 360.641C 166.865 359.818 168.646 357.509 168.646 357.03C 168.646 356.929 166.785 356.696 164.511 356.513L164.511 356.513L160.377 356.18L159.447 356.996C 157.436 358.761 154.489 358.265 153.297 355.96C 152.293 354.019 151.943 354.103 161.081 354.103L161.081 354.103L169.259 354.103L169.092 351.744C 168.494 343.316 162.421 339.134 153.169 340.78M223.082 340.798C 211.202 342.761 210.592 360.003 222.305 362.764C 231.434 364.916 238.426 360.17 238.426 351.821C 238.426 343.685 232.29 339.277 223.082 340.798M322.866 340.747C 321.63 341.122 321.007 341.575 320.205 342.682L320.205 342.682L319.413 343.776L319.413 342.402L319.413 341.027L315.41 341.027L311.408 341.027L311.408 351.835L311.408 362.642L315.651 362.642L319.894 362.642L320.012 356.971C 320.202 347.948 320.784 346.943 325.502 347.493C 326.323 347.589 328.87 341.971 328.201 341.539C 326.928 340.717 324.268 340.321 322.866 340.747M364.717 340.783C 358.428 341.704 355.754 347.324 359.633 351.47C 361.032 352.966 362.285 353.446 367.226 354.379C 372.03 355.285 373.096 356.045 371.627 357.514C 370.13 359.011 366.918 358.519 365.799 356.621C 365.501 356.117 365.225 355.704 365.185 355.704C 364.576 355.704 357.153 356.568 357.072 356.648C 356.806 356.914 357.995 359.345 358.859 360.3C 362.726 364.581 375.502 364.152 378.608 359.638C 382.346 354.205 379.328 350.059 370.573 348.603C 366.496 347.925 365.577 347.562 365.577 346.631C 365.577 344.696 370.053 344.768 370.941 346.718L370.941 346.718L371.211 347.31L375.132 346.942C 379.719 346.512 379.431 346.65 378.735 345.216C 376.794 341.222 372.02 339.712 364.717 340.783M76.657 341.541C 76.73 341.824 78.696 346.687 81.024 352.347L81.024 352.347L85.257 362.64L89.104 362.574L92.952 362.508L97.427 351.968C 99.889 346.171 101.91 341.338 101.919 341.227C 101.927 341.117 100.019 341.027 97.679 341.027L97.679 341.027L93.423 341.027L91.926 345.764C 91.103 348.369 90.162 351.323 89.835 352.328L89.835 352.328L89.242 354.156L87.25 347.592L85.258 341.027L80.89 341.027C 76.71 341.027 76.528 341.049 76.657 341.541M104.336 351.835L104.336 362.642L108.606 362.642L112.875 362.642L112.875 351.835L112.875 341.027L108.606 341.027L104.336 341.027L104.336 351.835zM242.295 349.118C 242.295 358.121 242.449 359.218 243.949 360.927C 246.659 364.014 252.578 363.934 256.018 360.764L256.018 360.764L257.238 359.639L257.238 361.14L257.238 362.642L261.107 362.642L264.977 362.642L264.977 351.835L264.977 341.027L260.871 341.027L256.766 341.027L256.655 347.365C 256.521 355.03 255.987 356.504 253.348 356.504C 250.978 356.504 250.595 355.185 250.579 346.965L250.579 346.965L250.567 341.027L246.431 341.027L242.295 341.027L242.295 349.118zM330.887 348.71C 330.887 357.163 331.084 358.683 332.431 360.626C 334.717 363.925 340.96 364.104 344.391 360.969L344.391 360.969L345.831 359.653L345.831 361.147L345.831 362.642L349.833 362.642L353.836 362.642L353.836 351.835L353.836 341.027L349.566 341.027L345.297 341.027L345.295 346.965C 345.293 354.607 344.917 355.984 342.715 356.397C 339.834 356.938 339.426 355.845 339.426 347.574L339.426 347.574L339.426 341.027L335.157 341.027L330.887 341.027L330.887 348.71zM44.296 346.346C 45.051 346.882 45.752 348.013 46.004 349.099L46.004 349.099L46.174 349.833L42.3 349.833C 40.169 349.833 38.426 349.743 38.427 349.633C 38.449 346.654 41.962 344.686 44.296 346.346M158.702 346.261C 159.526 346.782 160.102 347.731 160.287 348.871L160.287 348.871L160.443 349.833L156.673 349.833C 152.395 349.833 152.359 349.809 153.436 347.697C 154.418 345.772 156.873 345.103 158.702 346.261M228.136 347.141C 230.763 348.987 230.743 355.154 228.104 356.763C 224.565 358.92 221.299 354.771 222.569 349.73C 223.269 346.949 226.033 345.663 228.136 347.141M25.421 380.932C 19.317 382.576 16.049 387.313 16.322 394.121C 16.537 399.472 18.742 401.837 25.822 404.312C 31.249 406.21 32.556 407.127 32.554 409.042C 32.549 413.534 25.763 413.971 20.508 409.817L20.508 409.817L19.137 408.733L18.708 409.312C 16.983 411.641 14.566 417.072 15.082 417.462C 23.842 424.08 38.209 422.39 42.164 414.276C 46.092 406.217 42.491 399.434 32.534 396.134C 27.511 394.469 26.309 393.296 27.358 391.085C 28.62 388.426 32.944 388.474 37.013 391.194L37.013 391.194L37.869 391.766L39.903 387.706C 41.477 384.563 41.856 383.595 41.582 383.42C 37.96 381.112 29.556 379.818 25.421 380.932M144.897 380.925C 137.583 382.419 132.453 387.115 130.178 394.396C 129.354 397.036 129.264 404.131 130.02 406.938C 135.702 428.029 168.261 425.674 169.84 404.058C 169.917 403 170.041 401.294 170.115 400.267L170.115 400.267L170.251 398.399L160.109 398.399L149.967 398.399L149.967 402.535L149.967 406.671L154.003 406.671L158.039 406.671L157.866 407.534C 156.772 413.005 146.994 414.322 142.908 409.549C 138.643 404.566 139.482 394.824 144.486 391.23C 149.131 387.894 155.129 389.304 157.676 394.331L157.676 394.331L158.251 395.466L159.245 395.044C 159.793 394.812 162.01 393.896 164.173 393.007L164.173 393.007L168.106 391.391L167.297 389.872C 163.42 382.6 154.378 378.988 144.897 380.925M281.165 380.94C 259.84 385.694 259.46 415.684 280.66 420.862C 297.504 424.976 312.2 410.375 307.074 394.619C 303.759 384.43 292.403 378.434 281.165 380.94M54.703 401.067L54.703 420.547L59.907 420.547L65.11 420.547L65.11 401.067L65.11 381.588L59.907 381.588L54.703 381.588L54.703 401.067zM78.185 401.067L78.185 420.547L83.386 420.547L88.587 420.547L88.656 408.901L88.726 397.255L97.819 408.834L106.912 420.414L112.028 420.486L117.145 420.559L117.145 401.073L117.145 381.588L112.078 381.588L107.01 381.588L106.941 393.161L106.871 404.733L97.799 393.166L88.726 381.6L83.456 381.594L78.185 381.588L78.185 401.067zM190.935 382.055C 189.495 385.743 176.384 420.301 176.384 420.409C 176.384 420.491 178.865 420.525 181.896 420.486L181.896 420.486L187.408 420.414L187.898 418.946C 188.167 418.139 188.701 416.608 189.084 415.544L189.084 415.544L189.781 413.609L196.776 413.609L203.771 413.609L204.954 417.077L206.137 420.545L211.697 420.546C 214.754 420.547 217.216 420.444 217.167 420.318C 217.118 420.193 213.778 411.427 209.746 400.839L209.746 400.839L202.413 381.588L196.765 381.588C 191.634 381.588 191.101 381.63 190.935 382.055M226.551 401.067L226.551 420.547L231.755 420.547L236.958 420.547L236.958 414.183L236.958 407.82L241.428 407.659C 246.203 407.487 248.065 407.136 250.348 405.98C 258.349 401.925 258.244 386.962 250.186 383.06C 247.354 381.689 246.388 381.588 236.101 381.588L236.101 381.588L226.551 381.588L226.551 401.067zM319.413 401.067L319.413 420.547L324.612 420.547L329.811 420.547L329.882 413.409L329.953 406.271L334.506 413.342L339.059 420.414L345.513 420.485C 349.063 420.524 351.968 420.5 351.968 420.432C 351.968 420.363 349.267 416.789 345.966 412.489C 340.321 405.134 340 404.656 340.563 404.433C 347.814 401.564 350.441 393.812 346.463 387.023C 343.731 382.361 341.195 381.588 328.647 381.588L328.647 381.588L319.413 381.588L319.413 401.067zM361.041 401.067L361.041 420.547L372.248 420.547L383.456 420.547L383.456 416.144L383.456 411.741L377.452 411.741L371.448 411.741L371.448 408.539L371.448 405.337L377.051 405.337L382.655 405.337L382.655 400.934L382.655 396.531L377.051 396.531L371.448 396.531L371.448 393.462L371.448 390.394L377.452 390.394L383.456 390.394L383.456 385.991L383.456 381.588L372.248 381.588L361.041 381.588L361.041 401.067zM334.148 389.872C 339.964 391.487 338.022 398.666 331.769 398.666L331.769 398.666L329.82 398.666L329.82 394.129L329.82 389.593L331.488 389.595C 332.405 389.595 333.602 389.72 334.148 389.872M243.231 390.549C 246.255 392.088 246.178 397.05 243.106 398.599C 242.126 399.093 241.476 399.199 239.436 399.199L239.436 399.199L236.958 399.199L236.958 394.499L236.958 389.798L239.561 389.902C 241.496 389.98 242.439 390.146 243.231 390.549M288.426 390.654C 295.357 391.969 299.167 399.245 296.135 405.38C 291.52 414.716 277.777 412.845 275.894 402.623C 274.603 395.618 281.23 389.289 288.426 390.654M200.859 405.768C 200.795 405.832 198.886 405.851 196.617 405.811L196.617 405.811L192.492 405.737L194.623 399.648L196.754 393.559L198.865 399.605C 200.026 402.93 200.923 405.703 200.859 405.768" stroke="none" fill="#04040C" fill-rule="evenodd" />
	<g>
	</g>
    <path d="" stroke="none" fill="#04B0B4" fill-rule="evenodd" />
	<g>
	</g>
    <path d="" stroke="none" fill="#04B0B4" fill-rule="evenodd" />
	<g>
	</g>
    <path d="" stroke="none" fill="#04B0B4" fill-rule="evenodd" />
	<g>
	</g>
    <path d="" stroke="none" fill="#04B0B4" fill-rule="evenodd" />
	<g>
	</g>
    <path d="" stroke="none" fill="#04B0B4" fill-rule="evenodd" />
	<g>
	</g>
    <path d="" stroke="none" fill="#04B0B4" fill-rule="evenodd" />
	<g>
	</g>
    <path d="" stroke="none" fill="#04B0B4" fill-rule="evenodd" />
</g>
</svg>