<svg id="svg" version="1.1" xmlns="http://www.w3.org/2000/svg" xmlns:xlink="http://www.w3.org/1999/xlink" width="400" height="421.6144096064043" viewBox="0, 0, 400,421.6144096064043"><g id="svgg"><path id="path0" d="M107.614 51.849 C 57.243 80.350,16.025 103.759,16.020 103.869 C 16.015 103.979,98.892 104.069,200.191 104.069 C 354.870 104.069,384.308 104.012,383.980 103.709 C 383.454 103.224,200.113 0.204,199.602 0.106 C 199.381 0.064,157.986 23.348,107.614 51.849 M16.678 220.121 C 18.559 221.292,198.970 323.240,199.333 323.336 C 199.606 323.408,375.530 224.830,383.989 219.864 C 384.220 219.729,306.424 219.628,200.133 219.626 C 20.087 219.622,15.896 219.633,16.678 220.121 " stroke="none" fill="#04acec" fill-rule="evenodd"></path><path id="path1" d="M0.267 154.358 L 0.267 187.592 10.540 187.592 L 20.814 187.592 20.814 177.615 L 20.814 167.638 29.420 167.504 C 40.710 167.330,44.119 166.629,49.276 163.422 C 63.161 154.786,61.708 131.036,46.852 123.806 C 41.562 121.232,42.459 121.318,19.947 121.215 L 0.267 121.125 0.267 154.358 M223.616 154.367 L 223.616 187.592 233.354 187.592 L 243.092 187.592 243.160 169.726 L 243.229 151.861 253.239 169.660 L 263.250 187.458 273.319 187.528 L 283.389 187.598 283.389 154.373 L 283.389 121.147 273.651 121.147 L 263.913 121.147 263.844 138.685 L 263.776 156.222 254.271 138.751 L 244.767 121.281 234.191 121.211 L 223.616 121.141 223.616 154.367 M93.662 138.143 C 89.674 138.810,86.405 141.189,83.834 145.297 L 82.999 146.631 82.994 142.962 L 82.989 139.293 74.049 139.293 L 65.110 139.293 65.110 163.442 L 65.110 187.592 74.450 187.592 L 83.789 187.592 83.789 176.819 C 83.789 162.339,84.365 159.326,87.692 156.397 C 90.682 153.765,96.715 153.255,101.795 155.205 C 102.165 155.347,102.202 154.466,102.139 146.997 L 102.068 138.630 100.334 138.307 C 98.671 137.997,95.064 137.908,93.662 138.143 M123.949 138.256 C 110.643 140.190,102.735 149.529,102.735 163.309 C 102.735 179.369,112.421 188.562,129.286 188.508 C 145.687 188.455,155.304 179.141,155.304 163.309 C 155.304 146.126,142.146 135.613,123.949 138.256 M190.280 138.365 C 187.281 138.908,184.804 140.257,182.690 142.497 L 180.921 144.373 180.921 141.833 L 180.921 139.293 171.981 139.293 L 163.042 139.293 163.042 171.181 L 163.042 203.069 172.382 203.069 L 181.721 203.069 181.721 192.850 L 181.721 182.632 183.421 184.290 C 188.579 189.324,198.116 190.215,205.203 186.326 C 218.339 179.119,219.127 151.744,206.486 141.809 C 202.235 138.469,196.474 137.244,190.280 138.365 M312.608 138.233 C 289.138 141.859,283.325 175.186,304.336 185.658 C 315.373 191.159,331.330 189.072,338.772 181.153 C 340.871 178.920,343.428 174.726,343.429 173.516 C 343.429 173.256,341.532 173.183,334.823 173.187 L 326.217 173.191 325.172 174.251 C 319.873 179.629,309.347 175.431,309.276 167.912 C 309.274 167.648,312.980 167.578,326.925 167.578 L 344.578 167.578 344.399 164.443 C 343.551 149.516,337.174 141.138,324.742 138.618 C 322.331 138.129,314.826 137.891,312.608 138.233 M33.065 138.505 C 37.707 139.087,39.442 141.033,39.164 145.350 C 38.851 150.237,36.018 151.542,25.684 151.559 L 20.814 151.568 20.814 144.897 L 20.814 138.225 25.824 138.225 C 28.580 138.225,31.838 138.351,33.065 138.505 M354.633 150.496 C 358.743 156.657,362.136 161.799,362.173 161.921 C 362.211 162.043,358.519 167.769,353.969 174.645 C 349.420 181.520,345.657 187.246,345.608 187.369 C 345.559 187.491,350.127 187.592,355.759 187.592 L 365.999 187.592 369.276 181.855 C 371.078 178.699,372.588 176.117,372.632 176.117 C 372.676 176.117,374.257 178.699,376.145 181.855 L 379.579 187.592 389.790 187.592 C 395.405 187.592,400.000 187.523,400.000 187.438 C 400.000 187.353,396.208 181.642,391.572 174.746 C 386.937 167.850,383.207 162.046,383.283 161.848 C 383.359 161.649,386.290 157.184,389.796 151.924 C 393.302 146.665,396.611 141.670,397.150 140.824 L 398.130 139.286 388.069 139.356 L 378.009 139.426 375.554 143.782 C 374.204 146.177,373.043 148.193,372.975 148.262 C 372.906 148.330,371.724 146.342,370.347 143.843 L 367.845 139.299 357.503 139.296 L 347.162 139.293 354.633 150.496 M322.186 150.875 C 324.458 151.987,326.011 154.089,326.493 156.704 L 326.677 157.705 318.108 157.705 C 308.459 157.705,309.174 157.902,310.076 155.493 C 311.827 150.812,317.577 148.620,322.186 150.875 M132.247 152.313 C 138.351 155.429,138.360 171.142,132.260 174.454 C 129.435 175.987,124.777 174.676,123.096 171.874 C 120.945 168.287,120.748 159.225,122.736 155.328 C 124.407 152.053,128.930 150.619,132.247 152.313 M192.300 152.319 C 198.939 155.709,198.405 172.247,191.578 174.655 C 185.384 176.841,181.161 172.235,181.168 163.299 C 181.174 154.133,186.181 149.195,192.300 152.319 M369.520 293.907 C 360.794 296.427,359.848 308.583,368.083 312.389 C 373.048 314.683,379.460 312.183,381.314 307.230 C 384.237 299.417,377.355 291.643,369.520 293.907 M375.571 295.631 C 379.849 297.523,381.897 302.773,379.955 306.871 C 376.893 313.332,368.229 313.637,364.798 307.405 C 360.988 300.485,368.351 292.437,375.571 295.631 M368.512 303.381 L 368.512 308.472 369.580 308.472 L 370.647 308.472 370.647 306.471 L 370.647 304.470 372.197 304.470 C 374.277 304.470,374.671 304.805,374.880 306.756 L 375.050 308.339 376.183 308.421 C 377.306 308.502,377.314 308.496,377.051 307.803 C 376.904 307.418,376.785 306.587,376.785 305.956 C 376.785 305.199,376.596 304.569,376.231 304.105 C 375.927 303.719,375.813 303.402,375.978 303.402 C 376.472 303.402,377.110 301.533,376.935 300.600 C 376.602 298.823,375.826 298.476,371.961 298.378 L 368.512 298.290 368.512 303.381 M374.429 300.375 C 375.755 301.575,374.672 302.869,372.340 302.869 L 370.647 302.869 370.647 301.401 L 370.647 299.933 372.294 299.933 C 373.452 299.933,374.086 300.064,374.429 300.375 M11.207 332.502 C 4.871 332.965,1.172 336.225,1.232 341.294 C 1.290 346.144,4.449 348.778,12.443 350.642 C 17.118 351.732,18.642 353.187,17.474 355.446 C 15.859 358.568,10.273 357.215,9.293 353.465 L 8.953 352.160 6.011 352.330 C 4.393 352.423,2.528 352.502,1.868 352.505 C 0.053 352.513,-0.108 352.700,0.246 354.401 C 1.512 360.494,5.627 363.183,13.665 363.171 C 21.978 363.158,26.572 359.777,26.895 353.436 C 27.180 347.818,24.491 345.372,15.443 343.020 C 9.889 341.576,9.062 340.971,10.274 339.239 C 11.828 337.021,16.429 338.317,16.955 341.121 C 17.094 341.863,17.249 342.080,17.576 341.988 C 17.816 341.921,19.846 341.784,22.088 341.683 L 26.163 341.500 25.988 340.530 C 24.876 334.387,20.197 331.845,11.207 332.502 M104.336 335.690 L 104.336 338.626 108.606 338.626 L 112.875 338.626 112.875 335.690 L 112.875 332.755 108.606 332.755 L 104.336 332.755 104.336 335.690 M183.856 332.975 C 183.856 333.096,186.438 337.024,189.593 341.704 L 195.330 350.213 195.330 356.427 L 195.330 362.642 200.000 362.642 L 204.670 362.642 204.670 356.593 L 204.670 350.545 210.281 342.051 C 213.368 337.380,215.963 333.375,216.049 333.151 C 216.187 332.793,215.581 332.752,211.045 332.816 L 205.885 332.889 203.076 337.622 C 201.531 340.225,200.192 342.356,200.100 342.358 C 200.008 342.360,198.642 340.200,197.065 337.558 L 194.196 332.755 189.026 332.755 C 186.183 332.755,183.856 332.854,183.856 332.975 M281.788 336.624 L 281.788 340.494 286.458 340.494 L 291.127 340.494 291.127 351.568 L 291.127 362.642 295.797 362.642 L 300.467 362.642 300.467 351.568 L 300.467 340.494 305.137 340.494 L 309.807 340.494 309.807 336.624 L 309.807 332.755 295.797 332.755 L 281.788 332.755 281.788 336.624 M389.393 334.934 L 385.324 337.061 385.324 339.044 L 385.324 341.027 383.722 341.027 L 382.121 341.027 382.121 344.229 L 382.121 347.432 383.722 347.432 L 385.324 347.432 385.324 352.489 C 385.324 358.476,385.546 359.781,386.823 361.272 C 388.361 363.069,392.130 363.679,396.741 362.876 L 398.463 362.576 398.279 360.141 C 398.008 356.555,397.989 356.506,396.977 356.796 C 394.067 357.631,393.863 357.311,393.863 351.915 L 393.863 347.432 395.997 347.432 L 398.132 347.432 398.132 344.229 L 398.132 341.027 395.997 341.027 L 393.863 341.027 393.863 336.891 C 393.863 334.616,393.773 332.767,393.662 332.781 C 393.552 332.796,391.631 333.765,389.393 334.934 M38.441 340.890 C 26.826 343.534,26.754 360.659,38.348 362.918 C 40.516 363.340,46.103 363.119,47.939 362.538 C 50.355 361.773,54.169 358.507,54.169 357.202 C 54.169 356.506,46.266 356.052,45.549 356.707 C 42.893 359.134,39.376 358.195,38.549 354.837 L 38.368 354.103 46.535 354.103 L 54.703 354.103 54.703 352.405 C 54.703 343.679,47.767 338.767,38.441 340.890 M69.623 340.733 C 68.429 341.122,67.524 341.859,66.842 342.996 L 66.183 344.096 66.180 342.562 L 66.177 341.027 62.308 341.027 L 58.439 341.027 58.439 351.835 L 58.439 362.642 62.575 362.642 L 66.711 362.642 66.719 358.439 C 66.737 349.284,67.863 346.600,71.347 347.404 C 72.078 347.573,72.763 347.618,72.869 347.505 C 73.133 347.223,75.250 342.190,75.250 341.845 C 75.250 341.072,71.099 340.252,69.623 340.733 M125.854 340.787 C 113.988 342.520,113.387 360.305,125.112 362.790 C 132.746 364.409,139.155 361.936,141.151 356.603 C 141.835 354.774,142.214 355.031,138.081 354.527 C 133.549 353.974,133.815 353.939,133.116 355.183 C 130.791 359.320,125.147 357.238,125.152 352.245 C 125.156 348.339,127.380 345.922,130.444 346.497 C 131.459 346.687,133.155 348.169,133.155 348.866 C 133.155 349.177,133.346 349.253,133.889 349.159 C 134.914 348.983,140.590 348.232,140.903 348.232 C 141.812 348.232,139.948 344.617,138.284 343.152 C 135.778 340.946,130.995 340.036,125.854 340.787 M153.169 340.780 C 144.080 342.396,140.836 354.189,147.744 360.502 C 151.723 364.139,161.500 364.214,165.860 360.641 C 166.865 359.818,168.646 357.509,168.646 357.030 C 168.646 356.929,166.785 356.696,164.511 356.513 L 160.377 356.180 159.447 356.996 C 157.436 358.761,154.489 358.265,153.297 355.960 C 152.293 354.019,151.943 354.103,161.081 354.103 L 169.259 354.103 169.092 351.744 C 168.494 343.316,162.421 339.134,153.169 340.780 M223.082 340.798 C 211.202 342.761,210.592 360.003,222.305 362.764 C 231.434 364.916,238.426 360.170,238.426 351.821 C 238.426 343.685,232.290 339.277,223.082 340.798 M322.866 340.747 C 321.630 341.122,321.007 341.575,320.205 342.682 L 319.413 343.776 319.413 342.402 L 319.413 341.027 315.410 341.027 L 311.408 341.027 311.408 351.835 L 311.408 362.642 315.651 362.642 L 319.894 362.642 320.012 356.971 C 320.202 347.948,320.784 346.943,325.502 347.493 C 326.323 347.589,328.870 341.971,328.201 341.539 C 326.928 340.717,324.268 340.321,322.866 340.747 M364.717 340.783 C 358.428 341.704,355.754 347.324,359.633 351.470 C 361.032 352.966,362.285 353.446,367.226 354.379 C 372.030 355.285,373.096 356.045,371.627 357.514 C 370.130 359.011,366.918 358.519,365.799 356.621 C 365.501 356.117,365.225 355.704,365.185 355.704 C 364.576 355.704,357.153 356.568,357.072 356.648 C 356.806 356.914,357.995 359.345,358.859 360.300 C 362.726 364.581,375.502 364.152,378.608 359.638 C 382.346 354.205,379.328 350.059,370.573 348.603 C 366.496 347.925,365.577 347.562,365.577 346.631 C 365.577 344.696,370.053 344.768,370.941 346.718 L 371.211 347.310 375.132 346.942 C 379.719 346.512,379.431 346.650,378.735 345.216 C 376.794 341.222,372.020 339.712,364.717 340.783 M76.657 341.541 C 76.730 341.824,78.696 346.687,81.024 352.347 L 85.257 362.640 89.104 362.574 L 92.952 362.508 97.427 351.968 C 99.889 346.171,101.910 341.338,101.919 341.227 C 101.927 341.117,100.019 341.027,97.679 341.027 L 93.423 341.027 91.926 345.764 C 91.103 348.369,90.162 351.323,89.835 352.328 L 89.242 354.156 87.250 347.592 L 85.258 341.027 80.890 341.027 C 76.710 341.027,76.528 341.049,76.657 341.541 M104.336 351.835 L 104.336 362.642 108.606 362.642 L 112.875 362.642 112.875 351.835 L 112.875 341.027 108.606 341.027 L 104.336 341.027 104.336 351.835 M242.295 349.118 C 242.295 358.121,242.449 359.218,243.949 360.927 C 246.659 364.014,252.578 363.934,256.018 360.764 L 257.238 359.639 257.238 361.140 L 257.238 362.642 261.107 362.642 L 264.977 362.642 264.977 351.835 L 264.977 341.027 260.871 341.027 L 256.766 341.027 256.655 347.365 C 256.521 355.030,255.987 356.504,253.348 356.504 C 250.978 356.504,250.595 355.185,250.579 346.965 L 250.567 341.027 246.431 341.027 L 242.295 341.027 242.295 349.118 M330.887 348.710 C 330.887 357.163,331.084 358.683,332.431 360.626 C 334.717 363.925,340.960 364.104,344.391 360.969 L 345.831 359.653 345.831 361.147 L 345.831 362.642 349.833 362.642 L 353.836 362.642 353.836 351.835 L 353.836 341.027 349.566 341.027 L 345.297 341.027 345.295 346.965 C 345.293 354.607,344.917 355.984,342.715 356.397 C 339.834 356.938,339.426 355.845,339.426 347.574 L 339.426 341.027 335.157 341.027 L 330.887 341.027 330.887 348.710 M44.296 346.346 C 45.051 346.882,45.752 348.013,46.004 349.099 L 46.174 349.833 42.300 349.833 C 40.169 349.833,38.426 349.743,38.427 349.633 C 38.449 346.654,41.962 344.686,44.296 346.346 M158.702 346.261 C 159.526 346.782,160.102 347.731,160.287 348.871 L 160.443 349.833 156.673 349.833 C 152.395 349.833,152.359 349.809,153.436 347.697 C 154.418 345.772,156.873 345.103,158.702 346.261 M228.136 347.141 C 230.763 348.987,230.743 355.154,228.104 356.763 C 224.565 358.920,221.299 354.771,222.569 349.730 C 223.269 346.949,226.033 345.663,228.136 347.141 M25.421 380.932 C 19.317 382.576,16.049 387.313,16.322 394.121 C 16.537 399.472,18.742 401.837,25.822 404.312 C 31.249 406.210,32.556 407.127,32.554 409.042 C 32.549 413.534,25.763 413.971,20.508 409.817 L 19.137 408.733 18.708 409.312 C 16.983 411.641,14.566 417.072,15.082 417.462 C 23.842 424.080,38.209 422.390,42.164 414.276 C 46.092 406.217,42.491 399.434,32.534 396.134 C 27.511 394.469,26.309 393.296,27.358 391.085 C 28.620 388.426,32.944 388.474,37.013 391.194 L 37.869 391.766 39.903 387.706 C 41.477 384.563,41.856 383.595,41.582 383.420 C 37.960 381.112,29.556 379.818,25.421 380.932 M144.897 380.925 C 137.583 382.419,132.453 387.115,130.178 394.396 C 129.354 397.036,129.264 404.131,130.020 406.938 C 135.702 428.029,168.261 425.674,169.840 404.058 C 169.917 403.000,170.041 401.294,170.115 400.267 L 170.251 398.399 160.109 398.399 L 149.967 398.399 149.967 402.535 L 149.967 406.671 154.003 406.671 L 158.039 406.671 157.866 407.534 C 156.772 413.005,146.994 414.322,142.908 409.549 C 138.643 404.566,139.482 394.824,144.486 391.230 C 149.131 387.894,155.129 389.304,157.676 394.331 L 158.251 395.466 159.245 395.044 C 159.793 394.812,162.010 393.896,164.173 393.007 L 168.106 391.391 167.297 389.872 C 163.420 382.600,154.378 378.988,144.897 380.925 M281.165 380.940 C 259.840 385.694,259.460 415.684,280.660 420.862 C 297.504 424.976,312.200 410.375,307.074 394.619 C 303.759 384.430,292.403 378.434,281.165 380.940 M54.703 401.067 L 54.703 420.547 59.907 420.547 L 65.110 420.547 65.110 401.067 L 65.110 381.588 59.907 381.588 L 54.703 381.588 54.703 401.067 M78.185 401.067 L 78.185 420.547 83.386 420.547 L 88.587 420.547 88.656 408.901 L 88.726 397.255 97.819 408.834 L 106.912 420.414 112.028 420.486 L 117.145 420.559 117.145 401.073 L 117.145 381.588 112.078 381.588 L 107.010 381.588 106.941 393.161 L 106.871 404.733 97.799 393.166 L 88.726 381.600 83.456 381.594 L 78.185 381.588 78.185 401.067 M190.935 382.055 C 189.495 385.743,176.384 420.301,176.384 420.409 C 176.384 420.491,178.865 420.525,181.896 420.486 L 187.408 420.414 187.898 418.946 C 188.167 418.139,188.701 416.608,189.084 415.544 L 189.781 413.609 196.776 413.609 L 203.771 413.609 204.954 417.077 L 206.137 420.545 211.697 420.546 C 214.754 420.547,217.216 420.444,217.167 420.318 C 217.118 420.193,213.778 411.427,209.746 400.839 L 202.413 381.588 196.765 381.588 C 191.634 381.588,191.101 381.630,190.935 382.055 M226.551 401.067 L 226.551 420.547 231.755 420.547 L 236.958 420.547 236.958 414.183 L 236.958 407.820 241.428 407.659 C 246.203 407.487,248.065 407.136,250.348 405.980 C 258.349 401.925,258.244 386.962,250.186 383.060 C 247.354 381.689,246.388 381.588,236.101 381.588 L 226.551 381.588 226.551 401.067 M319.413 401.067 L 319.413 420.547 324.612 420.547 L 329.811 420.547 329.882 413.409 L 329.953 406.271 334.506 413.342 L 339.059 420.414 345.513 420.485 C 349.063 420.524,351.968 420.500,351.968 420.432 C 351.968 420.363,349.267 416.789,345.966 412.489 C 340.321 405.134,340.000 404.656,340.563 404.433 C 347.814 401.564,350.441 393.812,346.463 387.023 C 343.731 382.361,341.195 381.588,328.647 381.588 L 319.413 381.588 319.413 401.067 M361.041 401.067 L 361.041 420.547 372.248 420.547 L 383.456 420.547 383.456 416.144 L 383.456 411.741 377.452 411.741 L 371.448 411.741 371.448 408.539 L 371.448 405.337 377.051 405.337 L 382.655 405.337 382.655 400.934 L 382.655 396.531 377.051 396.531 L 371.448 396.531 371.448 393.462 L 371.448 390.394 377.452 390.394 L 383.456 390.394 383.456 385.991 L 383.456 381.588 372.248 381.588 L 361.041 381.588 361.041 401.067 M334.148 389.872 C 339.964 391.487,338.022 398.666,331.769 398.666 L 329.820 398.666 329.820 394.129 L 329.820 389.593 331.488 389.595 C 332.405 389.595,333.602 389.720,334.148 389.872 M243.231 390.549 C 246.255 392.088,246.178 397.050,243.106 398.599 C 242.126 399.093,241.476 399.199,239.436 399.199 L 236.958 399.199 236.958 394.499 L 236.958 389.798 239.561 389.902 C 241.496 389.980,242.439 390.146,243.231 390.549 M288.426 390.654 C 295.357 391.969,299.167 399.245,296.135 405.380 C 291.520 414.716,277.777 412.845,275.894 402.623 C 274.603 395.618,281.230 389.289,288.426 390.654 M200.859 405.768 C 200.795 405.832,198.886 405.851,196.617 405.811 L 192.492 405.737 194.623 399.648 L 196.754 393.559 198.865 399.605 C 200.026 402.930,200.923 405.703,200.859 405.768 " stroke="none" fill="#04040c" fill-rule="evenodd"></path><path id="path2" d="" stroke="none" fill="#04b0b4" fill-rule="evenodd"></path><path id="path3" d="" stroke="none" fill="#04b0b4" fill-rule="evenodd"></path><path id="path4" d="" stroke="none" fill="#04b0b4" fill-rule="evenodd"></path><path id="path5" d="" stroke="none" fill="#04b0b4" fill-rule="evenodd"></path><path id="path6" d="" stroke="none" fill="#04b0b4" fill-rule="evenodd"></path><path id="path7" d="" stroke="none" fill="#04b0b4" fill-rule="evenodd"></path><path id="path8" d="" stroke="none" fill="#04b0b4" fill-rule="evenodd"></path></g></svg>