<?xml version="1.0" encoding="UTF-8"?>
<svg xmlns="http://www.w3.org/2000/svg" xmlns:xlink="http://www.w3.org/1999/xlink" width="20pt" height="20pt" viewBox="0 0 20 20" version="1.1">
<g id="surface1">
<path style=" stroke:none;fill-rule:nonzero;fill:rgb(23.137255%,34.901961%,59.607843%);fill-opacity:1;" d="M 20 10 C 20 15.523438 15.523438 20 10 20 C 4.476562 20 0 15.523438 0 10 C 0 4.476562 4.476562 0 10 0 C 15.523438 0 20 4.476562 20 10 Z M 20 10 "/>
<path style=" stroke:none;fill-rule:nonzero;fill:rgb(100%,100%,100%);fill-opacity:1;" d="M 12.515625 10.390625 L 10.730469 10.390625 L 10.730469 16.929688 L 8.027344 16.929688 L 8.027344 10.390625 L 6.742188 10.390625 L 6.742188 8.09375 L 8.027344 8.09375 L 8.027344 6.605469 C 8.027344 5.542969 8.53125 3.878906 10.753906 3.878906 L 12.757812 3.886719 L 12.757812 6.117188 L 11.304688 6.117188 C 11.066406 6.117188 10.730469 6.238281 10.730469 6.742188 L 10.730469 8.097656 L 12.75 8.097656 Z M 12.515625 10.390625 "/>
</g>
</svg>
