<?xml version="1.0" encoding="UTF-8"?>
<svg xmlns="http://www.w3.org/2000/svg" xmlns:xlink="http://www.w3.org/1999/xlink" width="50pt" height="50pt" viewBox="0 0 50 50" version="1.1">
<g id="surface1">
<path style=" stroke:none;fill-rule:nonzero;fill:rgb(92.941176%,92.941176%,92.941176%);fill-opacity:1;" d="M 0 50 L 3.449219 37.5 C 1.207031 33.621094 0 29.308594 0 24.828125 C 0 11.207031 11.207031 0 24.914062 0 C 38.621094 0 50 11.207031 50 24.828125 C 50 38.449219 38.621094 50 24.914062 50 C 20.601562 50 16.464844 48.621094 12.757812 46.550781 Z M 0 50 "/>
<path style=" stroke:none;fill-rule:nonzero;fill:rgb(33.333333%,80.392157%,42.352941%);fill-opacity:1;" d="M 13.449219 42.070312 L 14.222656 42.5 C 17.414062 44.484375 21.121094 45.691406 25 45.691406 C 36.292969 45.691406 45.691406 36.292969 45.691406 24.828125 C 45.691406 13.363281 36.292969 4.308594 24.914062 4.308594 C 13.535156 4.308594 4.308594 13.449219 4.308594 24.828125 C 4.308594 28.792969 5.429688 32.671875 7.5 35.949219 L 8.015625 36.722656 L 6.035156 43.964844 Z M 13.449219 42.070312 "/>
<path style=" stroke:none;fill-rule:nonzero;fill:rgb(99.607843%,99.607843%,99.607843%);fill-opacity:1;" d="M 18.277344 13.277344 L 16.636719 13.191406 C 16.121094 13.191406 15.601562 13.363281 15.257812 13.707031 C 14.484375 14.398438 13.191406 15.691406 12.84375 17.414062 C 12.242188 20 13.191406 23.101562 15.429688 26.207031 C 17.671875 29.308594 21.984375 34.308594 29.570312 36.464844 C 31.984375 37.15625 33.878906 36.722656 35.429688 35.777344 C 36.636719 35 37.414062 33.792969 37.671875 32.5 L 37.929688 31.292969 C 38.015625 30.949219 37.84375 30.515625 37.5 30.34375 L 32.070312 27.84375 C 31.722656 27.671875 31.292969 27.757812 31.035156 28.101562 L 28.878906 30.863281 C 28.707031 31.035156 28.449219 31.121094 28.191406 31.035156 C 26.722656 30.515625 21.808594 28.449219 19.136719 23.277344 C 19.050781 23.015625 19.050781 22.757812 19.222656 22.585938 L 21.292969 20.257812 C 21.464844 20 21.550781 19.65625 21.464844 19.398438 L 18.964844 13.792969 C 18.878906 13.535156 18.621094 13.277344 18.277344 13.277344 "/>
</g>
</svg>
