<?xml version="1.0" encoding="UTF-8"?>
<svg xmlns="http://www.w3.org/2000/svg" xmlns:xlink="http://www.w3.org/1999/xlink" width="20pt" height="20pt" viewBox="0 0 20 20" version="1.1">
<g id="surface1">
<path style=" stroke:none;fill-rule:nonzero;fill:rgb(92.941176%,92.941176%,92.941176%);fill-opacity:1;" d="M 0 20 L 1.378906 15 C 0.484375 13.449219 0 11.722656 0 9.929688 C 0 4.484375 4.484375 0 9.964844 0 C 15.449219 0 20 4.484375 20 9.929688 C 20 15.378906 15.449219 20 9.964844 20 C 8.242188 20 6.585938 19.449219 5.101562 18.621094 Z M 0 20 "/>
<path style=" stroke:none;fill-rule:nonzero;fill:rgb(33.333333%,80.392157%,42.352941%);fill-opacity:1;" d="M 5.378906 16.828125 L 5.691406 17 C 6.964844 17.792969 8.449219 18.277344 10 18.277344 C 14.515625 18.277344 18.277344 14.515625 18.277344 9.929688 C 18.277344 5.34375 14.515625 1.722656 9.964844 1.722656 C 5.414062 1.722656 1.722656 5.378906 1.722656 9.929688 C 1.722656 11.515625 2.171875 13.070312 3 14.378906 L 3.207031 14.691406 L 2.414062 17.585938 Z M 5.378906 16.828125 "/>
<path style=" stroke:none;fill-rule:nonzero;fill:rgb(99.607843%,99.607843%,99.607843%);fill-opacity:1;" d="M 7.308594 5.308594 L 6.65625 5.277344 C 6.449219 5.277344 6.242188 5.34375 6.101562 5.484375 C 5.792969 5.757812 5.277344 6.277344 5.136719 6.964844 C 4.898438 8 5.277344 9.242188 6.171875 10.484375 C 7.070312 11.722656 8.792969 13.722656 11.828125 14.585938 C 12.792969 14.863281 13.550781 14.691406 14.171875 14.308594 C 14.65625 14 14.964844 13.515625 15.070312 13 L 15.171875 12.515625 C 15.207031 12.378906 15.136719 12.207031 15 12.136719 L 12.828125 11.136719 C 12.691406 11.070312 12.515625 11.101562 12.414062 11.242188 L 11.550781 12.34375 C 11.484375 12.414062 11.378906 12.449219 11.277344 12.414062 C 10.691406 12.207031 8.722656 11.378906 7.65625 9.308594 C 7.621094 9.207031 7.621094 9.101562 7.691406 9.035156 L 8.515625 8.101562 C 8.585938 8 8.621094 7.863281 8.585938 7.757812 L 7.585938 5.515625 C 7.550781 5.414062 7.449219 5.308594 7.308594 5.308594 "/>
</g>
</svg>
